<svg width="60" height="75" viewBox="0 0 60 75" fill="none" xmlns="http://www.w3.org/2000/svg">
<path d="M44.6859 0.613616C44.529 0.438231 38.8751 0.682847 33.9551 6.02286C29.0351 11.3583 29.792 17.4783 29.9028 17.6352C30.0136 17.7921 36.9182 18.0367 41.3259 11.829C45.7336 5.62132 44.8428 0.793616 44.6859 0.613616ZM59.9813 54.7661C59.7598 54.323 49.2505 49.0707 50.229 38.9722C51.2075 28.8691 57.9598 26.0998 58.066 25.7998C58.1721 25.4998 55.3106 22.1537 52.2782 20.4598C50.0519 19.2656 47.5878 18.5814 45.0644 18.4567C44.5659 18.4429 42.8351 18.0183 39.2767 18.9921C36.9321 19.6337 31.6474 21.7106 30.1936 21.7937C28.7351 21.8767 24.3966 19.3844 19.7305 18.7244C16.7443 18.1475 13.5782 19.329 11.312 20.2383C9.05045 21.1429 4.7489 23.7183 1.73966 30.5629C-1.26958 37.4029 0.304274 48.2399 1.43043 51.6091C2.55659 54.9737 4.31505 60.4891 7.30583 64.5138C9.9643 69.0553 13.4905 72.2076 14.9628 73.2784C16.4351 74.3492 20.5889 75.0599 23.4689 73.5876C25.7859 72.1661 29.9674 71.3492 31.6197 71.4092C33.2674 71.4692 36.5167 72.1199 39.8444 73.8969C42.4798 74.8061 44.9721 74.4276 47.469 73.4122C49.9659 72.3923 53.5798 68.5245 57.7983 60.683C59.3998 57.0368 60.129 55.0661 59.9813 54.7661Z" fill="#090F11"/>
<path d="M44.6859 0.613616C44.529 0.438231 38.8751 0.682847 33.9551 6.02286C29.0351 11.3583 29.792 17.4783 29.9028 17.6352C30.0136 17.7921 36.9182 18.0367 41.3259 11.829C45.7336 5.62132 44.8428 0.793616 44.6859 0.613616ZM59.9813 54.7661C59.7598 54.323 49.2505 49.0707 50.229 38.9722C51.2075 28.8691 57.9598 26.0998 58.066 25.7998C58.1721 25.4998 55.3106 22.1537 52.2782 20.4598C50.0519 19.2656 47.5878 18.5814 45.0644 18.4567C44.5659 18.4429 42.8351 18.0183 39.2767 18.9921C36.9321 19.6337 31.6474 21.7106 30.1936 21.7937C28.7351 21.8767 24.3966 19.3844 19.7305 18.7244C16.7443 18.1475 13.5782 19.329 11.312 20.2383C9.05045 21.1429 4.7489 23.7183 1.73966 30.5629C-1.26958 37.4029 0.304274 48.2399 1.43043 51.6091C2.55659 54.9737 4.31505 60.4891 7.30583 64.5138C9.9643 69.0553 13.4905 72.2076 14.9628 73.2784C16.4351 74.3492 20.5889 75.0599 23.4689 73.5876C25.7859 72.1661 29.9674 71.3492 31.6197 71.4092C33.2674 71.4692 36.5167 72.1199 39.8444 73.8969C42.4798 74.8061 44.9721 74.4276 47.469 73.4122C49.9659 72.3923 53.5798 68.5245 57.7983 60.683C59.3998 57.0368 60.129 55.0661 59.9813 54.7661Z" fill="#090F11"/>
</svg>
