<svg width="80" height="95" viewBox="0 0 80 95" fill="none" xmlns="http://www.w3.org/2000/svg">
<path d="M54.6859 10.6136C54.529 10.4382 48.8751 10.6828 43.9551 16.0229C39.0351 21.3583 39.792 27.4783 39.9028 27.6352C40.0136 27.7921 46.9182 28.0367 51.3259 21.829C55.7336 15.6213 54.8428 10.7936 54.6859 10.6136ZM69.9813 64.7661C69.7598 64.323 59.2505 59.0707 60.229 48.9722C61.2075 38.8691 67.9598 36.0998 68.066 35.7998C68.1721 35.4998 65.3106 32.1537 62.2782 30.4598C60.0519 29.2656 57.5878 28.5814 55.0644 28.4567C54.5659 28.4429 52.8351 28.0183 49.2767 28.9921C46.9321 29.6337 41.6474 31.7106 40.1936 31.7937C38.7351 31.8767 34.3966 29.3844 29.7305 28.7244C26.7443 28.1475 23.5782 29.329 21.312 30.2383C19.0504 31.1429 14.7489 33.7183 11.7397 40.5629C8.73042 47.4029 10.3043 58.2399 11.4304 61.6091C12.5566 64.9737 14.3151 70.4891 17.3058 74.5138C19.9643 79.0553 23.4905 82.2076 24.9628 83.2784C26.4351 84.3492 30.5889 85.0599 33.4689 83.5876C35.7859 82.1661 39.9674 81.3492 41.6197 81.4092C43.2674 81.4692 46.5167 82.1199 49.8444 83.8969C52.4798 84.8061 54.9721 84.4276 57.469 83.4122C59.9659 82.3923 63.5798 78.5245 67.7983 70.683C69.3998 67.0368 70.129 65.0661 69.9813 64.7661Z" fill="white"/>
<path d="M54.6859 10.6136C54.529 10.4382 48.8751 10.6828 43.9551 16.0229C39.0351 21.3583 39.792 27.4783 39.9028 27.6352C40.0136 27.7921 46.9182 28.0367 51.3259 21.829C55.7336 15.6213 54.8428 10.7936 54.6859 10.6136ZM69.9813 64.7661C69.7598 64.323 59.2505 59.0707 60.229 48.9722C61.2075 38.8691 67.9598 36.0998 68.066 35.7998C68.1721 35.4998 65.3106 32.1537 62.2782 30.4598C60.0519 29.2656 57.5878 28.5814 55.0644 28.4567C54.5659 28.4429 52.8351 28.0183 49.2767 28.9921C46.9321 29.6337 41.6474 31.7106 40.1936 31.7937C38.7351 31.8767 34.3966 29.3844 29.7305 28.7244C26.7443 28.1475 23.5782 29.329 21.312 30.2383C19.0504 31.1429 14.7489 33.7183 11.7397 40.5629C8.73042 47.4029 10.3043 58.2399 11.4304 61.6091C12.5566 64.9737 14.3151 70.4891 17.3058 74.5138C19.9643 79.0553 23.4905 82.2076 24.9628 83.2784C26.4351 84.3492 30.5889 85.0599 33.4689 83.5876C35.7859 82.1661 39.9674 81.3492 41.6197 81.4092C43.2674 81.4692 46.5167 82.1199 49.8444 83.8969C52.4798 84.8061 54.9721 84.4276 57.469 83.4122C59.9659 82.3923 63.5798 78.5245 67.7983 70.683C69.3998 67.0368 70.129 65.0661 69.9813 64.7661Z" fill="white"/>
</svg>
