<svg width="499" height="363" viewBox="0 0 499 363" fill="none" xmlns="http://www.w3.org/2000/svg">
<g clip-path="url(#clip0_168_63)">
<path d="M22.0293 201.081C22.3705 199.599 22.5532 198.858 22.8944 197.437L26.4157 195.724C38.527 171.43 48.0795 146.371 51.0525 119.988C52.7584 104.95 51.8323 85.1503 67.4649 76.1129L65.1377 77.7406L68.5372 75.2262C87.2889 61.4029 105.919 47.3732 124.671 33.6228C133.931 24.9742 149.344 29.007 140.047 43.9842C128.972 61.8281 119.176 87.6647 98.5108 100.82V101.221C116.349 97.0421 132.859 109.857 128.692 129.086C124.524 148.314 110.878 170.944 89.7624 175.912C66.5748 182.57 43.9313 190.984 22.0293 201.081ZM75.9331 109.578L80.2586 107.464C95.2697 98.8399 101.727 81.5912 104.92 65.5936C108.746 46.4257 124.549 34.4974 114.521 41.8342C94.2341 56.7385 80.1733 75.5541 77.0906 100.953L75.9331 109.578ZM73.2525 129.256C72.0341 140.261 70.6938 175.062 79.1863 175.135C86.9843 175.135 94.4046 151.339 96.0008 140.103C97.4751 129.523 99.4734 104.1 81.5257 110.331L75.4335 113.246C74.5684 119.636 74.142 122.83 73.2525 129.256Z" fill="white"/>
<path d="M130.227 171.272L130.897 167.154C131.957 167.154 132.493 167.154 133.553 167.154C148.869 140.115 156.789 108.776 160.846 78.5787C164.124 54.2848 165.951 30.5375 173.884 6.91163C172.823 7.30033 172.275 7.50683 171.203 7.93197C172.275 6.5958 172.836 5.91557 173.957 4.56726C191.173 0.327968 204.247 0 221.756 0C221.001 1.73702 220.635 2.59945 219.916 4.26359L217.954 4.16641C199.483 27.7315 189.687 51.8676 185.057 81.2389C181.182 105.679 162.479 163.28 183.387 181.816C187.104 185.108 191.587 166.826 193.013 158.202C195.267 144.67 207.5 123.28 223.584 129.535C223.712 129.586 223.828 129.665 223.921 129.766C224.015 129.867 224.085 129.988 224.126 130.12C224.167 130.252 224.178 130.391 224.158 130.527C224.138 130.663 224.087 130.793 224.01 130.908C219.855 139.156 217.455 153.987 216.7 160.146C214.86 176.034 214.263 188.91 216.517 204.846C216.821 205.502 216.748 206.061 216.383 205.843C188.127 190.307 162.649 175.767 130.227 171.272Z" fill="white"/>
<path d="M305.95 191.582C305.682 192.797 305.524 193.404 305.231 194.594C289.904 202.223 273.966 209.013 256.908 211.6C257.176 209.972 257.298 209.171 257.566 207.543C258.785 207.397 259.467 207.312 260.734 207.13C266.044 196.925 269.422 185.832 270.701 174.406C271.301 169.934 271.505 165.418 271.31 160.911C265.193 161.095 259.072 160.688 253.034 159.696C252.077 164.226 251.37 168.804 250.913 173.41C249.537 184.342 249.025 197.085 251.206 208.065C252.497 208.065 253.131 207.98 254.41 207.883C254.154 209.535 254.02 210.313 253.765 212.001C240.861 213.216 234.27 212.766 220.867 207.725C221.098 205.94 221.22 205.041 221.464 203.255C222.78 203.765 223.45 203.996 224.766 204.47C266.217 152.359 259.528 76.6109 281.277 16.1555C283.714 17.6495 284.932 18.4391 287.503 20.0911C279.096 75.8943 285.347 139.301 303.343 192.857C304.391 192.359 304.915 192.104 305.95 191.582ZM271.371 155.481C271.03 132.839 267.996 110.331 265.425 87.859L265.096 87.7618C261.709 109.91 258.013 131.997 254.008 154.024C259.742 155.014 265.552 155.501 271.371 155.481Z" fill="white"/>
<path d="M336.46 129.973C335.912 137.892 330.551 176.714 344.185 170.993C353.579 167.057 362.242 152.906 364.618 142.484C366.105 136.022 361.816 131.953 363.168 125.114C363.921 121.045 365.962 117.324 368.992 114.497C368.273 113.042 367.721 111.509 367.347 109.93C367.201 109.663 367.64 109.456 367.798 109.578C381.396 112.772 380.994 120.17 378.996 126.486C372.416 147.318 358.514 163.96 339.311 176.082C310.787 194.096 310.8 136.641 310.592 123.207C310.227 98.0989 321.558 45.9884 358.77 60.4312C372.002 65.5693 376.656 68.4117 379.057 71.0962C389.072 68.3753 402.451 67.4521 406.862 66.5897C407.264 66.5046 407.471 66.5897 407.276 66.8569C407.081 67.1241 392.849 73.6106 387.086 86.62C383.248 95.293 386.063 100.711 385.941 101.124C385.887 101.375 385.761 101.605 385.576 101.784C385.392 101.964 385.158 102.084 384.905 102.132C370.552 106.055 359.574 88.3692 367.847 76.3801C371.417 71.1812 368.176 67.3185 361.974 65.3264C336.557 57.1636 337.13 105.023 336.911 118.652C336.74 123.292 336.655 125.563 336.46 129.973Z" fill="white"/>
<path d="M427.063 115.785H427.416C444.925 92.317 457.451 64.5612 462.276 35.785C462.641 33.5985 462.909 31.3271 463.092 29.7115L460.253 32.6146C460.509 31.3999 460.631 30.8655 460.887 29.7115C467.649 18.7792 482.965 21.6459 491.518 28.4968C491.518 29.7115 491.518 30.416 491.518 31.7158C490.958 31.0045 490.292 30.3821 489.544 29.8694C468.831 40.3765 460.302 63.2979 450.92 82.9152C461.886 113.015 474.667 141.646 491.47 169.013L493.736 169.754C493.736 170.969 493.809 171.612 493.858 172.839C475.179 167.75 456.513 163.243 437.529 159.478L437.834 156.611L440.648 157.012C441.894 154.57 442.62 151.899 442.781 149.165C443.256 135.402 438.735 121.615 434.983 108.448C431.559 113.526 429.78 115.967 426.161 120.68C424.37 131.807 427.38 145.849 432.18 155.906C433.472 156.052 434.118 156.125 435.409 156.295C435.275 157.425 435.214 157.984 435.08 159.113C415.846 156.822 396.386 157.189 377.253 160.206C377.509 159.308 377.643 158.858 377.911 157.959C378.983 157.716 379.519 157.607 380.591 157.388C393.495 141.877 402.389 122.648 407.543 103.334C410.671 90.8475 413.063 78.189 414.708 65.4236C413.684 65.7637 413.16 65.9338 412.1 66.2496C412.783 65.4722 413.124 65.0349 413.818 64.3182C429.512 57.7103 443.938 48.2842 455.404 35.6392L454.526 38.348L453.174 39.6842C443.624 58.307 435.979 77.8405 430.353 97.9896C428.988 105.193 428.33 108.752 427.063 115.785Z" fill="white"/>
<path d="M19.4951 272.323C13.1348 266.796 8.83375 258.791 12.6962 243.85C17.3994 225.63 31.5942 205.721 49.8343 197.862C57.6079 194.509 63.9316 196.198 66.7584 199.441C72.351 193.234 83.1099 187.683 90.5545 185.314C91.0541 185.205 91.2612 185.764 91.0297 186.116C85.4371 195.177 82.9515 207.252 81.5381 214.054C80.015 221.342 79.8445 228.314 81.9036 233.258C82.0133 233.513 81.733 234.072 80.6852 234.315C62.4086 241.214 60.6784 219.18 63.164 207.446C63.6757 205.017 61.8603 196.769 52.064 200.68C49.6271 201.64 41.5732 207.409 39.2216 218.755C36.7848 230.477 38.7221 235.311 42.4749 238.372C49.3048 243.959 56.4836 249.107 63.9682 253.787C73.1308 259.86 77.4929 264.075 73.5329 275.991C68.123 292.232 60.6418 308.399 46.8613 319.222C39.0998 325.296 28.3897 328.49 23.2966 328.442C21.1034 334.394 12.4281 341.099 5.77547 339.714C5.3559 339.649 4.94642 339.531 4.55703 339.362C1.49874 337.346 -1.36459 327.434 0.80423 318.36C2.705 310.404 4.11839 303.334 2.10796 294.26C2.06267 294.148 2.04288 294.026 2.05 293.905C2.05712 293.784 2.09097 293.666 2.14915 293.559C2.20732 293.452 2.28839 293.359 2.38657 293.288C2.48476 293.216 2.59764 293.166 2.71718 293.143C21.6517 290.993 17.1557 313.878 25.5264 323.826C27.9633 324.458 34.0555 325.041 40.5741 320.279C48.2016 314.704 48.762 307.865 47.8848 302.994C46.8491 296.981 47.7873 292.463 41.9266 289.11C33.0929 283.838 29.2426 280.753 19.4951 272.323Z" fill="white"/>
<path d="M125.987 235.797C125.573 237.813 125.39 238.846 124.915 240.85C121.259 251.697 116.727 268.132 128.058 276.161C128.753 276.234 129.094 276.283 129.788 276.38C130.033 276.701 130.324 276.984 130.653 277.218C113.595 275.566 97.3413 283.182 83.5729 292.402C83.0357 292.13 82.5327 291.795 82.0742 291.406C83.1586 290.738 83.6947 290.41 84.7792 289.778C86.4606 269.395 100.838 253.337 105.176 234.169C108.697 218.633 108.953 201.372 103.677 185.861C102.739 185.994 102.264 186.067 101.326 186.225C101.557 185.12 101.667 184.573 101.886 183.48C117.826 181.578 133.95 181.798 149.832 184.136C149.625 185.132 149.527 185.63 149.32 186.565L147.712 186.237C137.964 197.643 131.653 211.637 127.997 226.067C127.461 228.703 127.181 230.027 126.633 232.663C138.074 232.517 143.581 233.878 153.987 237.522C154.559 234.959 154.839 233.671 155.4 231.108C156.923 215.074 156.472 203.17 153.158 187.464L151.233 187.003C151.44 186.007 151.55 185.521 151.757 184.573C168.341 189.814 184.159 197.215 198.801 206.583L198.192 209.013L195.657 207.434C183.814 216.714 176.93 231.12 173.201 244.968C169.217 259.69 159.738 276.55 165.123 292.572L166.707 293.726C166.703 294.043 166.728 294.36 166.78 294.673C157.544 286.741 144.093 279.72 132.042 277.534C131.727 277.292 131.444 277.01 131.202 276.696L132.566 276.975C138.086 265.703 146.993 256.981 152.22 245.563C152.719 243.607 152.89 242.611 153.329 240.644C142.947 236.951 137.452 235.578 125.987 235.797Z" fill="white"/>
<path d="M219.319 276.331C218.578 279.429 217.495 282.436 216.09 285.296C209.267 294.831 194.268 313.003 201.932 323.182C202.858 324.397 206.355 324.482 208.451 321.069C216.834 307.391 233.051 300.006 249.001 299.763C249.707 299.763 249.902 300.37 249.561 300.65C244.435 304.822 239.923 309.692 236.158 315.117C230.066 323.073 225.29 335.9 225.29 341.281C225.29 341.597 225.29 341.913 224.717 341.573C205.514 327.737 187.762 312.42 169.887 297.006C169.869 296.69 169.869 296.374 169.887 296.058L171.459 297.273C183.911 289.049 195.913 278.263 200.702 264.002C206.245 247.592 206.075 229.153 203.138 211.977L201.031 210.762L201.64 208.333C222.41 220.355 246.975 224.091 270.396 218.791C270.993 218.633 271.054 218.937 270.738 219.69C267.017 227.929 263.85 236.407 261.258 245.065C259.918 250.264 257.603 262.168 258.76 269.092C258.882 269.821 258.48 270.161 257.92 269.942C242.969 263.723 241.032 247.264 245.053 233.501C246.271 229.481 245.54 224.403 243.713 225.108C231.223 229.894 226.411 252.523 222.499 265.873C221.622 268.8 221.171 270.27 220.27 273.161C221.391 273.623 221.951 273.841 223.072 274.279C228.226 276.258 232.917 273.61 235.001 266.553C235.951 263.334 235.707 260.334 234.915 256.495C234.842 256.167 234.781 255.827 235.171 255.596L236.646 254.928C237.194 254.71 237.498 254.758 237.559 255.098C239.095 258.572 244.2 267.889 240.52 280.753C236.731 293.957 226.861 298.293 220.915 299.471C220.452 299.556 219.989 299.641 219.88 299.289C219.624 298.609 219.49 298.269 219.222 297.601C218.954 296.933 219.222 297.03 220.44 296.714C225.399 295.256 228.738 288.648 228.348 285.454C228.107 283.687 227.396 282.018 226.288 280.618C225.18 279.219 223.716 278.141 222.049 277.497C220.989 277.048 220.428 276.805 219.319 276.331Z" fill="white"/>
<path d="M298.981 300.419C291.427 320.036 285.249 337.261 284.445 358.396C286.273 358.579 287.199 358.664 289.075 358.797C288.405 360.17 288.076 360.85 287.394 362.198C268.483 359.186 251.754 354.91 234.294 347.051C234.854 346.14 235.135 345.654 235.707 344.682C236.56 345.108 236.987 345.314 237.852 345.715C257.639 328.418 274.344 308.375 279.754 281.968C284.043 261.014 287.686 238.664 284.469 217.236L282.41 217.99L283.141 214.552C298.774 208.248 313.675 200.304 328.467 192.274C348.498 178.524 351.496 218.998 351.8 230.27C352.336 249.62 346.061 273.355 327.431 283.182V283.68C354.603 288.843 340.834 320.814 333.84 336.398C330.709 343.322 328.747 348.545 332.135 347.901C333.914 347.549 336.85 345.338 338.568 342.192C338.621 342.073 338.698 341.966 338.794 341.878C338.891 341.79 339.005 341.724 339.128 341.682L340.554 341.354C340.92 341.269 340.725 341.719 340.554 342.144C335.437 353.076 325.116 361.275 312.956 362.794C297.653 364.737 298.116 351.035 303.708 339.301C306.803 332.815 313.334 325.733 317.66 315.007C322.046 304.075 322.265 287.409 308.655 288.685C305.536 288.976 303.989 289.098 300.943 289.304C300.582 293.055 299.926 296.771 298.981 300.419ZM305.963 284.336C326.055 280.692 326.676 253.228 326.908 237.911C327.078 227.16 322.424 200.862 320.206 200.729C314.565 200.401 305.865 252.888 303.148 273.088C302.514 277.753 302.198 280.085 301.552 284.749L305.963 284.336Z" fill="white"/>
<path d="M412.613 173.264H410.176C405.094 201.528 402.646 230.199 402.865 258.913C402.975 285.016 396.7 309.736 389.999 335.439L392.435 334.321C391.522 335.791 391.059 336.52 390.108 337.965C372.508 345.623 354.482 352.27 336.119 357.874C336.887 356.356 337.252 355.59 337.996 354.06L340.518 353.428C361.78 325.709 378.387 298.524 378.448 264.634C378.448 236.927 373.294 208.393 363.826 180.82L361.548 181.585C361.402 179.557 361.317 178.524 361.122 176.447C377.641 171.37 394.783 168.586 412.065 168.175C412.32 170.288 412.43 171.272 412.613 173.264Z" fill="white"/>
<path d="M462.203 254.807C462.398 256.981 462.495 258.087 462.678 260.237C463.531 277.024 453.881 291.928 444.852 305.253L446.851 303.966C445.705 305.18 445.12 305.727 443.914 306.905C428.135 317.024 412.113 326.438 395.615 335.329C396.578 333.884 397.053 333.167 397.979 331.685L400.416 330.47C418.692 309.821 440.795 285.016 438.894 255.499C437.067 227.185 430.024 200.073 420.618 173.313L418.181 173.24C417.998 171.297 417.9 170.325 417.718 168.381C443.337 171.189 468.721 175.825 493.675 182.253C494.024 182.372 494.321 182.604 494.52 182.913C494.72 183.222 494.808 183.588 494.772 183.954C493.2 191.647 492.611 199.508 493.017 207.349C493.468 212.548 494.967 223.966 498.878 230.95C499.256 231.618 498.963 231.971 498.305 231.813C479.212 227.792 471.5 208.284 470.208 191.205C469.83 186.225 466.675 179.058 465.334 179.702C452.65 186.225 459.864 227.731 461.338 244.737C461.533 246.911 461.618 248.005 461.813 250.179L464.701 249.657C473.498 248.102 473.912 238.724 473.486 233.999C473.12 230.064 471.475 226.845 469.014 222.119C468.886 221.927 468.839 221.692 468.882 221.465C468.926 221.238 469.056 221.037 469.245 220.905C469.733 220.419 469.977 220.164 470.464 219.69C470.506 219.643 470.558 219.606 470.616 219.58C470.673 219.555 470.736 219.541 470.799 219.541C470.862 219.541 470.925 219.555 470.982 219.58C471.04 219.606 471.092 219.643 471.134 219.69C478.239 227.467 482.899 237.151 484.537 247.543C486.304 259.459 479.127 267.792 469.355 274.74C468.88 275.092 468.405 275.457 468.234 275.323C468.017 275.133 467.789 274.954 467.552 274.789C467.296 274.582 467.552 274.279 468.064 273.938C471.218 271.78 473.587 268.66 474.814 265.047C476.727 258.864 472.377 252.778 465.066 254.224L462.203 254.807Z" fill="white"/>
</g>
<defs>
<clipPath id="clip0_168_63">
<rect width="499" height="363" fill="white"/>
</clipPath>
</defs>
</svg>
