<svg width="303" height="142" viewBox="0 0 303 142" fill="none" xmlns="http://www.w3.org/2000/svg">
<g clip-path="url(#clip0_190_75988)">
<path d="M0 109.48C0.101602 108.753 0.15631 108.386 0.257912 107.652C0.914416 107.324 1.25048 107.16 1.9148 106.871C8.02654 93.6646 11.6373 79.1537 13.4193 65.2599C14.2008 58.8401 11.8171 42.6111 18.4603 37.8861C17.9366 38.1907 17.6787 38.3391 17.1394 38.6671C17.7725 38.2922 18.0929 38.1126 18.7025 37.7612C27.5106 32.716 35.5137 26.429 43.4699 20.1654C46.5414 17.7756 52.067 10.0125 51.8951 29.7091C51.8169 42.041 46.7134 52.3579 36.0217 58.7074V58.9417C46.518 58.1607 52.4343 69.5397 51.8951 78.6539C51.262 88.8068 46.2992 102.162 34.2085 102.951C21.7193 103.294 11.6451 104.809 0 109.48ZM25.6037 61.1831L27.6357 60.4021C35.6388 57.0595 37.6396 46.0163 37.8662 38.5343C38.2335 26.4914 43.7122 20.3529 39.6325 23.2894C28.1828 31.5367 27.4325 43.0251 26.1117 56.2316C25.9163 58.2232 25.7912 59.1369 25.6037 61.1831ZM24.3922 72.8511C23.8921 79.3334 21.5708 99.7407 28.5345 100.967C30.2539 101.264 34.4274 98.3583 35.9358 82.2231C36.4203 77.0607 37.2175 61.2222 28.2531 62.2921C27.0964 62.7061 26.5259 62.9169 25.377 63.3465C25.0097 67.1655 24.783 69.0555 24.3922 72.8511Z" fill="white"/>
<path d="M55.6934 103.411V100.998L57.1236 101.053C63.4464 84.9017 64.7281 66.4937 64.6187 49.9445C64.5327 36.8628 59.3119 20.915 63.0556 7.55219L61.9067 8.16137C62.235 7.53657 62.3834 7.2398 62.6883 6.68529C72.2388 2.10868 77.4909 0.452975 88.0418 0C87.948 0.632604 87.8855 0.97624 87.7214 1.70256C87.229 1.6557 86.9867 1.63227 86.4943 1.60103C76.4748 15.3153 77.3736 32.8798 77.4361 49.0307C77.5065 61.7218 75.0915 99.2797 84.8922 103.552C86.9945 104.466 87.9558 93.2036 87.8777 88.1193C87.7605 80.3094 92.0434 65.4706 101.414 67.3528C101.789 67.423 101.821 67.7589 101.727 68.0166C100.07 72.7026 99.9917 80.903 100.101 84.4174C100.359 92.6881 100.703 101.693 103.735 109.526C103.939 109.862 103.946 110.151 103.735 110.104C87.9425 106.504 71.8695 104.265 55.6934 103.411Z" fill="white"/>
<path d="M152.95 122.686V125.31C143.821 122.249 134.708 119.164 125.525 116.258C125.525 115.227 125.525 114.696 125.525 113.681L127.268 114.228C129.245 110.135 129.949 97.741 129.925 94.4374C129.958 91.6634 129.81 88.8901 129.48 86.1355C125.353 84.9093 123.282 84.3001 119.148 83.0896C118.868 85.6672 118.776 88.2618 118.874 90.8527C118.956 98.2113 120.02 105.526 122.039 112.603L123.782 113.142L123.821 115.719C116.787 113.533 113.255 112.486 106.158 110.659C106.158 109.62 106.119 109.097 106.088 108.066L107.846 108.527C123.18 79.2393 116.772 42.5952 130.511 12.8472C132.137 13.2455 132.958 13.4329 134.583 13.8078C136.029 22.2737 134.239 31.4192 135.263 40.1585C136.287 48.8978 138.319 57.5277 139.859 66.1967C143.204 84.9952 145.955 103.833 151.441 122.17L152.95 122.686ZM129.191 82.9178C128.409 71.2029 126.166 59.6989 123.907 48.1871L123.704 48.1324C122.141 58.7539 120.281 69.3285 119.327 80.0281L129.191 82.9178Z" fill="white"/>
<path d="M169.98 82.6525C169.659 93.5864 165.814 127.614 176.725 130.215C183.72 131.886 187.213 115.587 187.463 109.027C187.729 101.834 184.845 95.1874 185.165 88.1975C185.431 82.5119 186.807 79.9581 187.705 78.7319C187.346 77.4511 186.783 75.772 186.377 74.3427C186.275 74.1162 186.486 74.0694 186.588 74.2022C193.708 79.2161 194.802 88.7364 194.13 96.7025C193.294 106.621 191.004 138.314 173.919 132.628C153.192 125.74 152.614 87.3306 152.59 70.3284C152.59 58.6136 154.786 16.768 176.779 24.0859C181.469 25.6479 185.283 28.3892 186.83 31.4819C190.511 28.6781 195.849 30.6072 198.147 31.0992C198.358 31.1461 198.718 31.4272 198.725 31.5522C198.835 37.0191 193.778 47.172 193.45 55.4037C193.138 61.0677 193.753 66.7446 195.271 72.2106C195.271 72.5777 195.271 72.9448 194.857 72.8354C181.258 69.3053 181.414 48.1405 182.352 38.0891C183.04 30.5916 181.211 27.1083 179.304 26.8818C168.542 25.6166 170.355 63.9712 170.3 73.0853C170.16 76.92 170.097 78.8334 169.98 82.6525Z" fill="white"/>
<path d="M219.944 100.631H220.148C229.831 79.919 235.575 61.4251 239.593 38.9326C239.974 37.2953 239.882 35.5836 239.327 33.9967C238.24 34.1451 237.693 34.2154 236.599 34.3325C236.388 33.6986 236.038 33.1197 235.575 32.6378C242.413 31.9572 249.155 30.5353 255.685 28.397C256.23 28.8783 256.66 29.4762 256.943 30.1464L255.239 30.6462C246.462 46.1255 241.656 62.8778 233.356 78.4351C242.172 96.9681 244.297 118.547 252.707 137.463L253.911 137.244C253.825 138.337 253.786 138.884 253.707 139.977C244.372 141.687 234.872 142.321 225.392 141.867C225.47 140.805 225.517 140.305 225.595 139.212L226.978 139.259C227.641 136.894 228.063 134.468 228.237 132.019C229.057 119.914 226.627 107.223 224.251 95.2421C222.367 99.3111 221.429 101.326 219.561 105.325C219.054 116.672 220.157 128.033 222.836 139.071L224.399 139.157C224.313 140.219 224.274 140.719 224.196 141.813C214.7 141.263 205.264 139.941 195.982 137.861L196.138 135.252L197.498 135.541C204.274 118.422 207.041 98.9128 208.01 81.2858C208.69 68.9148 208.674 45.3601 203.399 33.2235L201.945 32.9658C201.825 32.3757 201.589 31.8155 201.25 31.3179C210.85 33.1599 220.647 33.7636 230.401 33.1142C230.842 33.5991 231.17 34.1751 231.363 34.8011L230.183 34.8714C225.807 50.9914 222.792 67.45 221.171 84.0739C220.71 90.6889 220.452 94.0003 219.944 100.631Z" fill="white"/>
<path d="M276.099 134.159C254.716 142.945 256.005 92.4615 256.631 83.0896C257.819 65.3376 259.757 28.3108 278.905 18.2672C302.508 5.84943 303.915 51.7483 302.703 64.9705C300.898 84.5969 297.263 125.458 276.099 134.159ZM280.577 19.8917C270.198 26.0225 274.942 62.2136 273.715 78.1303C273.239 84.2845 269.487 133.393 276.287 131.355C286.447 128.325 285.439 84.9171 286.369 72.554C286.892 65.7437 286.713 16.2835 280.577 19.8917Z" fill="white"/>
</g>
<defs>
<clipPath id="clip0_190_75988">
<rect width="303" height="142" fill="white"/>
</clipPath>
</defs>
</svg>
