<svg width="60" height="59" viewBox="0 0 60 59" fill="none" xmlns="http://www.w3.org/2000/svg">
<g clip-path="url(#clip0_179_75935)">
<path d="M29.5752 0.723736C37.4491 0.717563 44.4427 3.15111 50.3668 8.38857C55.433 12.8668 58.6397 18.4561 59.6427 25.1611C60.9698 33.9787 58.5695 41.7646 52.6214 48.3794C47.7674 53.7758 41.6457 56.9439 34.4677 57.9407C25.8824 59.132 18.0439 57.1738 11.1576 51.8677C5.38546 47.4195 1.69733 41.5841 0.456633 34.376C-1.02711 25.7737 1.11556 18.0502 6.73032 11.3831C11.5349 5.6734 17.7376 2.34096 25.0861 1.1211C26.5707 0.879049 28.0711 0.746239 29.5752 0.723736ZM57.6135 29.5313C57.6204 28.8515 57.5525 28.1857 57.5178 27.519C57.5016 27.2104 57.4692 26.9018 57.4321 26.5985C56.7555 21.0162 54.5418 16.1167 50.6986 12.0281C44.57 5.50751 36.9499 2.61718 28.0497 3.12257C22.7614 3.42425 17.9097 5.12172 13.6182 8.23117C6.80825 13.1693 2.94651 19.8233 2.45965 28.2744C2.13173 33.9563 3.61701 39.2154 6.86689 43.8857C12.0658 51.3576 19.3279 55.3104 28.3622 55.9015C34.9507 56.3328 41.0361 54.6392 46.404 50.7612C53.619 45.5523 57.3573 38.4407 57.6135 29.5313Z" fill="white"/>
<path d="M4.78751 29.4741C5.07377 20.8387 8.83906 14.1198 16.0571 9.39467C20.9512 6.19418 26.3962 4.91954 32.2124 5.4473C40.1318 6.16795 46.5158 9.71796 51.0705 16.2725C57.4475 25.4542 56.3681 37.7547 48.5621 45.8423C44.3277 50.2287 39.1488 52.7865 33.1005 53.4724C25.8376 54.2964 19.2777 52.4693 13.6043 47.8291C8.70712 43.82 5.81757 38.6312 4.97732 32.332C4.93874 32.0396 4.90711 31.7449 4.88936 31.4501C4.85001 30.7966 4.78366 30.1438 4.78751 29.4741ZM25.2914 31.7456C25.1787 31.7333 25.1193 31.7209 25.0599 31.7209C23.2613 31.7209 21.4636 31.7271 19.665 31.7125C19.3973 31.7125 19.3518 31.849 19.2939 32.045C18.082 36.1143 16.8683 40.1836 15.6528 44.2528C15.2501 45.6054 16.051 46.681 17.4668 46.6879C18.7121 46.6933 19.9582 46.7018 21.2043 46.6879C23.3215 46.6617 25.4426 46.7882 27.5552 46.5383C30.4871 46.191 33.271 45.367 35.7547 43.7444C38.9776 41.6372 41.1835 38.821 41.5276 34.8373C41.7683 32.0543 40.7067 29.7071 38.0779 28.4441C37.5439 28.191 36.9841 27.9964 36.4082 27.8638C36.284 27.8345 36.1173 27.8638 36.044 27.664C36.3341 27.5869 36.6204 27.5267 36.8997 27.4433C40.6503 26.3222 43.1734 22.8965 43.1857 18.912C43.1934 16.5094 42.1966 14.6229 40.2537 13.2348C38.8186 12.2101 37.1921 11.7318 35.4453 11.7102C32.9029 11.6801 30.3591 11.6863 27.8159 11.7048C26.0413 11.7179 24.9665 12.5033 24.3539 14.1561C24.3135 14.2914 24.2643 14.4238 24.2065 14.5526C24.0383 14.8744 24.1726 14.9215 24.4781 14.923C26.7157 14.9307 28.9478 14.987 31.1816 14.9593C31.7862 14.9428 32.3881 15.046 32.9527 15.2629C33.5173 15.4798 34.0335 15.8061 34.4716 16.2231C35.9522 17.588 36.8881 19.2238 36.7176 21.3155C36.5911 22.8687 35.3473 23.7652 33.818 23.4535C33.2122 23.3253 32.6393 23.0734 32.1352 22.7136C30.9288 21.8841 30.0246 20.6851 29.5589 19.2971C29.1793 18.1952 29.096 17.088 29.6546 16.0055C29.6616 15.9916 29.6384 15.9623 29.6222 15.923C27.8059 15.923 25.9827 15.9299 24.1595 15.916C23.8647 15.916 23.7474 15.9932 23.6664 16.2879C22.3918 20.9534 21.1058 25.616 19.8085 30.2758C19.7144 30.6145 19.7507 30.7171 20.1295 30.7148C22.5986 30.7002 25.0614 30.7148 27.5274 30.7032C28.2739 30.6937 29.0128 30.8547 29.6878 31.1739C31.9254 32.2433 33.3798 34.0249 34.2493 36.3087C34.6529 37.3673 34.8134 38.4637 34.6351 39.5987C34.3319 41.4976 32.8242 42.6009 30.9239 42.3139C30.1473 42.1936 29.4043 41.9132 28.7418 41.4906C26.9117 40.3441 25.6602 38.7253 24.921 36.7069C24.5591 35.7185 24.3948 34.7008 24.5314 33.6422C24.6211 32.9561 24.8825 32.3038 25.2914 31.7456Z" fill="white"/>
</g>
<defs>
<clipPath id="clip0_179_75935">
<rect width="60" height="57.5526" fill="white" transform="translate(0 0.723724)"/>
</clipPath>
</defs>
</svg>
