<svg width="26" height="26" viewBox="0 0 26 26" fill="none" xmlns="http://www.w3.org/2000/svg">
<g clip-path="url(#clip0_173_80554)">
<path d="M26.0001 13.0796C26.0001 5.85488 20.1793 -0.00161743 13.0001 -0.00161743C5.81758 7.56851e-06 -0.00317383 5.85488 -0.00317383 13.0813C-0.00317383 19.6089 4.75158 25.0201 10.9656 26.0016V16.861H7.66683V13.0813H10.9688V10.1969C10.9688 6.91926 12.9107 5.10901 15.8796 5.10901C17.3031 5.10901 18.7899 5.36413 18.7899 5.36413V8.58163H17.1503C15.5367 8.58163 15.033 9.59076 15.033 10.6259V13.0796H18.6372L18.0619 16.8594H15.0313V26C21.2453 25.0185 26.0001 19.6073 26.0001 13.0796Z" fill="white"/>
</g>
<defs>
<clipPath id="clip0_173_80554">
<rect width="26" height="26" fill="white"/>
</clipPath>
</defs>
</svg>
