<svg width="21" height="60" viewBox="0 0 21 60" fill="none" xmlns="http://www.w3.org/2000/svg">
<g clip-path="url(#clip0_230_75927)">
<path d="M0 60C0.0404673 59.5276 0.0632302 59.2894 0.103697 58.817C0.369264 58.603 0.503312 58.502 0.773937 58.3001C3.24497 49.7645 4.70432 40.397 5.42262 31.4253C5.75647 27.2786 4.77514 16.8129 7.46369 13.7483L6.93003 14.2248C7.18295 13.9865 7.31446 13.8694 7.57244 13.6393C11.1285 10.3809 14.3709 6.32302 17.583 2.27322C18.8274 0.73486 21.0481 -4.28398 20.9924 8.43876C20.957 16.4051 18.8957 23.0834 14.5733 27.1655V27.319C18.8173 26.8183 21.2226 34.183 20.9899 40.0498C20.737 46.5989 18.7136 55.2315 13.8398 55.7443C8.77888 56.0027 4.70685 56.9798 0 60ZM10.3495 28.8089L11.169 28.3042C14.4089 26.144 15.2157 19.0175 15.3068 14.1723C15.456 6.39166 17.669 2.42665 16.02 4.32436C11.3814 9.66218 11.088 17.0794 10.5569 25.6231C10.476 26.891 10.4355 27.4845 10.3495 28.8089ZM9.8639 36.3392C9.65904 40.5262 8.7207 53.7012 11.5357 54.4845C12.2338 54.6783 13.9208 52.8008 14.5303 42.3997C14.725 39.0646 15.0488 28.8371 11.4219 29.5316C10.9565 29.7981 10.7238 29.9354 10.261 30.214C10.0991 32.6649 10.0182 33.8923 9.8639 36.3392Z" fill="white"/>
</g>
<defs>
<clipPath id="clip0_230_75927">
<rect width="21" height="60" fill="white"/>
</clipPath>
</defs>
</svg>
