<svg width="60" height="61" viewBox="0 0 60 61" fill="none" xmlns="http://www.w3.org/2000/svg">
<g clip-path="url(#clip0_190_76002)">
<path d="M30 0.5C22.0435 0.5 14.4129 3.66071 8.7868 9.2868C3.16071 14.9129 0 22.5435 0 30.5C0 38.4565 3.16071 46.0871 8.7868 51.7132C14.4129 57.3393 22.0435 60.5 30 60.5C37.9565 60.5 45.5871 57.3393 51.2132 51.7132C56.8393 46.0871 60 38.4565 60 30.5C60 22.5435 56.8393 14.9129 51.2132 9.2868C45.5871 3.66071 37.9565 0.5 30 0.5V0.5ZM43.7587 43.7675C43.6308 43.9774 43.4626 44.1599 43.264 44.3047C43.0653 44.4494 42.84 44.5535 42.601 44.611C42.362 44.6685 42.114 44.6783 41.8712 44.6397C41.6284 44.6011 41.3957 44.515 41.1862 44.3862C34.14 40.085 25.275 39.11 14.8312 41.4987C14.3474 41.6091 13.8395 41.5228 13.4193 41.2587C12.9991 40.9947 12.701 40.5745 12.5906 40.0906C12.4802 39.6068 12.5666 39.0989 12.8306 38.6787C13.0947 38.2585 13.5149 37.9604 13.9987 37.85C25.4288 35.24 35.2313 36.3613 43.1362 41.195C43.5592 41.4542 43.8622 41.8705 43.9789 42.3527C44.0956 42.8348 44.0164 43.3436 43.7587 43.7675ZM47.43 35.6C47.1051 36.1284 46.5837 36.5062 45.9804 36.6504C45.3771 36.7946 44.7412 36.6932 44.2125 36.3687C36.15 31.415 23.8575 29.9788 14.3175 32.8738C13.7368 33.0117 13.1254 32.923 12.6079 32.6256C12.0904 32.3283 11.7059 31.8447 11.5327 31.2735C11.3595 30.7024 11.4108 30.0866 11.676 29.552C11.9413 29.0173 12.4005 28.604 12.96 28.3962C23.8538 25.0925 37.3988 26.6938 46.6575 32.3825C47.1866 32.7068 47.5652 33.2279 47.71 33.8313C47.8549 34.4347 47.7542 35.0709 47.43 35.6ZM47.745 27.095C38.0775 21.35 22.125 20.8212 12.8925 23.6225C12.1804 23.8383 11.4117 23.7624 10.7556 23.4115C10.0994 23.0606 9.60957 22.4634 9.39375 21.7512C9.17793 21.0391 9.25383 20.2705 9.60476 19.6143C9.95569 18.9582 10.5529 18.4683 11.265 18.2525C21.8587 15.0388 39.4762 15.6575 50.61 22.265C51.2505 22.6449 51.7138 23.2637 51.8981 23.9853C52.0823 24.7068 51.9724 25.472 51.5925 26.1125C51.2126 26.753 50.5938 27.2163 49.8722 27.4006C49.1507 27.5848 48.3855 27.4749 47.745 27.095Z" fill="#090F11"/>
</g>
<defs>
<clipPath id="clip0_190_76002">
<rect width="60" height="60" fill="white" transform="translate(0 0.5)"/>
</clipPath>
</defs>
</svg>
