<svg width="60" height="41" viewBox="0 0 60 41" fill="none" xmlns="http://www.w3.org/2000/svg">
<g clip-path="url(#clip0_179_75930)">
<path d="M9.9365 0.504456H10.0601C11.007 1.58669 12.0766 2.55168 13.0849 3.59152L19.9391 10.4457V10.5701C16.6202 13.8736 13.3158 17.2087 9.99602 20.5122C6.66214 17.1946 3.33306 13.8706 0.00878906 10.5404C0.179241 10.2148 0.504814 9.99924 0.752826 9.73409C3.80924 6.64703 6.91165 3.60686 9.9365 0.504456Z" fill="white" stroke="white" stroke-width="0.16" stroke-miterlimit="6.88"/>
<path d="M29.9464 0.504333H30.0699C30.1603 0.643536 30.2642 0.773438 30.3802 0.892135C33.5917 4.07211 36.7563 7.29537 39.9976 10.4627C39.9201 10.6494 39.7496 10.773 39.6098 10.9136C36.3992 14.1086 33.1934 17.3103 29.9924 20.5185C26.642 17.2105 23.3583 13.8447 19.988 10.5556C23.2456 7.15918 26.6735 3.88632 29.9464 0.504333Z" fill="white" stroke="white" stroke-width="0.16" stroke-miterlimit="6.88"/>
<path d="M49.9557 0.504456H50.0802C50.7007 1.24939 51.433 1.88521 52.0967 2.58325L59.6192 10.1066C59.7436 10.2455 59.9457 10.3699 59.9917 10.572C56.6259 13.8448 53.3684 17.2412 49.9873 20.5186L40.4474 10.9751C40.2923 10.8046 40.0866 10.6802 40.0127 10.4628C41.7037 8.81874 43.3496 7.12594 45.0234 5.46831C46.6675 3.80888 48.3396 2.19545 49.9557 0.504456Z" fill="white" stroke="white" stroke-width="0.16" stroke-miterlimit="6.88"/>
<path d="M20.1279 30.3641C23.4011 27.0916 26.6778 23.8148 29.9582 20.5338L30.0971 20.5951C33.3865 23.902 36.6855 27.1956 39.9941 30.4759C39.8859 30.7249 39.6532 30.8637 39.4819 31.0658C37.0937 33.4386 34.702 35.8456 32.3157 38.2166C31.5401 38.9607 30.7951 39.7985 30.0051 40.4965C28.8724 39.4729 27.8334 38.3249 26.7313 37.2706C24.4983 35.0367 22.2798 32.8027 20.0305 30.5851C20.0621 30.5228 20.0927 30.4299 20.1207 30.3677L20.1279 30.3641Z" fill="white" stroke="white" stroke-width="0.16" stroke-miterlimit="6.88"/>
</g>
<defs>
<clipPath id="clip0_179_75930">
<rect width="60" height="40.0057" fill="white" transform="translate(0 0.497131)"/>
</clipPath>
</defs>
</svg>
