<svg width="26" height="26" viewBox="0 0 26 26" fill="none" xmlns="http://www.w3.org/2000/svg">
<path d="M8.16725 24.375C17.979 24.375 23.3464 16.2451 23.3464 9.20725C23.3464 8.97975 23.3464 8.749 23.3366 8.5215C24.3816 7.76504 25.2835 6.82849 26 5.75575C25.0239 6.18613 23.9895 6.46978 22.9304 6.5975C24.046 5.93066 24.8815 4.88145 25.2817 3.64487C24.2336 4.26582 23.0864 4.70173 21.8904 4.9335C21.0863 4.07716 20.0223 3.50986 18.8631 3.31948C17.704 3.12909 16.5144 3.32624 15.4787 3.8804C14.4429 4.43455 13.6188 5.31477 13.134 6.38472C12.6492 7.45467 12.5307 8.65464 12.7969 9.79875C10.6758 9.69239 8.60083 9.14138 6.70644 8.18145C4.81206 7.22153 3.14061 5.87412 1.8005 4.22662C1.12018 5.40163 0.912557 6.79152 1.2198 8.11405C1.52704 9.43659 2.32611 10.5926 3.45475 11.3474C2.609 11.3186 1.78185 11.0915 1.04 10.6844V10.7575C1.04146 11.9884 1.46787 13.1811 2.24717 14.1339C3.02647 15.0867 4.11084 15.7412 5.317 15.9867C4.85918 16.1129 4.38625 16.1757 3.91138 16.1736C3.5766 16.1746 3.24249 16.1436 2.91363 16.081C3.25453 17.1406 3.91832 18.067 4.81203 18.7305C5.70573 19.394 6.78459 19.7614 7.8975 19.7811C6.0069 21.266 3.67153 22.0714 1.2675 22.0675C0.843896 22.0693 0.420588 22.0449 0 21.9944C2.43996 23.5499 5.27361 24.3759 8.16725 24.375Z" fill="white"/>
</svg>
