<svg width="60" height="61" viewBox="0 0 60 61" fill="none" xmlns="http://www.w3.org/2000/svg">
<g clip-path="url(#clip0_190_76011)">
<path d="M30.1912 7.99622H30.525C33.6075 8.00747 49.2262 8.11997 53.4375 9.25247C54.7106 9.5981 55.8707 10.2718 56.8018 11.2062C57.733 12.1407 58.4026 13.3032 58.7438 14.5775C59.1225 16.0025 59.3888 17.8887 59.5688 19.835L59.6063 20.225L59.6888 21.2L59.7188 21.59C59.9625 25.0175 59.9925 28.2275 59.9963 28.9287V29.21C59.9925 29.9375 59.9587 33.365 59.6888 36.935L59.6588 37.3287L59.625 37.7187C59.4375 39.8637 59.16 41.9937 58.7438 43.5612C58.4036 44.836 57.7344 45.9991 56.8031 46.9337C55.8718 47.8683 54.7111 48.5416 53.4375 48.8862C49.0875 50.0562 32.5537 50.1387 30.2625 50.1425H29.73C28.5712 50.1425 23.7787 50.12 18.7537 49.9475L18.1162 49.925L17.79 49.91L17.1488 49.8837L16.5075 49.8575C12.345 49.6737 8.38125 49.3775 6.555 48.8825C5.28184 48.5382 4.12149 47.8654 3.19022 46.9315C2.25894 45.9976 1.58943 44.8353 1.24875 43.5612C0.8325 41.9975 0.555 39.8637 0.3675 37.7187L0.3375 37.325L0.3075 36.935C0.122428 34.394 0.0198745 31.8476 0 29.3L0 28.8387C0.0075 28.0325 0.0375 25.2462 0.24 22.1712L0.26625 21.785L0.2775 21.59L0.3075 21.2L0.39 20.225L0.4275 19.835C0.6075 17.8887 0.87375 15.9987 1.2525 14.5775C1.5926 13.3026 2.26186 12.1396 3.19317 11.205C4.12449 10.2704 5.28514 9.59706 6.55875 9.25247C8.385 8.76497 12.3487 8.46497 16.5112 8.27747L17.1488 8.25122L17.7937 8.22872L18.1162 8.21747L18.7575 8.19122C22.3264 8.07637 25.8968 8.01261 29.4675 7.99997H30.1912V7.99622ZM24 20.0337V38.1012L39.5887 29.0712L24 20.0337Z" fill="#090F11"/>
</g>
<defs>
<clipPath id="clip0_190_76011">
<rect width="60" height="60" fill="white" transform="translate(0 0.5)"/>
</clipPath>
</defs>
</svg>
