<svg width="82" height="84" viewBox="0 0 82 84" fill="none" xmlns="http://www.w3.org/2000/svg">
<g clip-path="url(#clip0_30_15)">
<path d="M40.5518 24.0446C20.6497 24.0446 4.51758 37.4655 4.51758 54.0205C4.51758 70.5756 20.6497 83.9964 40.5518 83.9964C60.4539 83.9964 76.5896 70.5756 76.5896 54.0205C76.5896 37.4655 60.4539 24.0446 40.5518 24.0446ZM40.5518 79.9855C29.653 79.9855 20.8162 68.3607 20.8162 54.0205C20.8162 39.6804 29.653 28.0556 40.5518 28.0556C51.4507 28.0556 60.2909 39.6804 60.2909 54.0205C60.2909 68.3607 51.4542 79.9855 40.5518 79.9855Z" fill="white"/>
<path d="M80.7953 69.958L0.931885 41.2209L2.14011 37.9731L82.0036 66.7102L80.7953 69.958Z" fill="white"/>
<path d="M9.09536 18.6741C9.09536 21.7764 4.54945 24.2931 4.54945 24.2931C4.54945 24.2931 0 21.7764 0 18.6741C0 15.5718 4.54945 13.0517 4.54945 13.0517C4.54945 13.0517 9.09536 15.5825 9.09536 18.6741Z" fill="white"/>
<path d="M81.419 18.6741C81.419 21.7764 76.8731 24.2931 76.8731 24.2931C76.8731 24.2931 72.3271 21.7764 72.3271 18.6741C72.3271 15.5718 76.8731 13.0517 76.8731 13.0517C76.8731 13.0517 81.419 15.5825 81.419 18.6741Z" fill="white"/>
<path d="M45.1862 5.61893C45.1862 8.72478 40.6367 11.2379 40.6367 11.2379C40.6367 11.2379 36.0908 8.72478 36.0908 5.61893C36.0908 2.51307 40.6367 0 40.6367 0C40.6367 0 45.1862 2.51662 45.1862 5.61893Z" fill="white"/>
</g>
<defs>
<clipPath id="clip0_30_15">
<rect width="82" height="84" fill="white"/>
</clipPath>
</defs>
</svg>
