<svg width="366" height="146" viewBox="0 0 366 146" fill="none" xmlns="http://www.w3.org/2000/svg">
<g clip-path="url(#clip0_322_75933)">
<path d="M48.3326 20.205C48.3326 32.328 40.3518 45.2742 24.8376 45.2742C11.3373 45.2742 5.37031 35.7704 5.37031 25.3685C5.29572 13.1707 13.5749 0 28.8653 0C41.9181 0 48.258 9.80318 48.258 20.205H48.3326ZM12.9036 20.2799C12.9036 29.2599 18.6469 39.2127 28.6416 39.2127C36.8462 39.2127 40.6501 32.5525 40.6501 25.3685C40.6501 16.3885 34.9069 5.98667 24.9868 5.98667C16.7822 5.98667 12.9036 12.8713 12.9036 20.2799V20.2799Z" fill="white"/>
<path d="M88.5352 0C98.5299 0 101.439 7.63301 101.439 14.9667L100.842 32.4777C100.842 37.267 101.364 40.7094 106.585 41.6074C107.406 41.6822 107.853 42.1312 107.853 42.9544C107.853 43.7775 107.331 44.3014 106.511 44.3014H85.5517C84.8058 44.3014 84.2837 43.8524 84.2837 43.0292C84.2837 42.206 84.6566 41.6822 85.4771 41.6074C91.2203 40.6345 91.8916 37.1174 92.1154 32.1035L92.5629 19.1574C92.5629 13.5448 91.1457 7.25884 84.1345 7.25884C75.557 7.25884 72.3497 15.715 72.0514 23.0487L71.6784 32.777C71.6784 37.5664 72.2751 40.7842 77.4217 41.6822C78.1675 41.757 78.6151 42.206 78.6151 43.0292C78.6151 43.8524 78.093 44.3762 77.2725 44.3762H56.4626C55.7168 44.3762 55.1201 43.9272 55.1201 43.104C55.1201 42.2809 55.493 41.757 56.3135 41.6822C62.0567 40.6345 62.728 37.267 62.9517 32.1784L63.5484 13.6197C63.5484 10.1025 60.8633 8.83034 56.3135 8.83034C56.0151 8.45618 55.9405 8.00718 55.9405 7.55817C55.9405 6.66017 56.388 5.83701 57.656 5.68734C60.4903 5.16351 64.2943 3.592 66.6065 2.09534C67.8745 1.27217 68.7695 0.374167 70.3359 0.374167C71.3055 0.374167 72.2006 0.748334 72.6481 1.5715L71.8276 11.9733C71.8276 11.9733 71.9022 12.3475 71.9768 12.3475C72.0514 12.3475 72.126 12.2727 72.2751 12.0482C75.1095 4.78934 81.3748 0 88.6098 0L88.5352 0Z" fill="white"/>
<path d="M147.459 15.1912C147.459 15.1912 146.713 14.817 146.564 14.4428C144.625 9.65351 140.224 5.837 133.884 5.837C124.859 5.837 120.309 13.3203 120.309 21.0282C120.309 29.185 125.307 37.4167 135.451 37.4167C139.553 37.4167 144.625 35.1717 148.13 31.2804C148.503 30.9062 148.876 30.7565 149.324 30.7565C150.07 30.7565 150.517 31.2055 150.517 31.7294C150.517 32.0287 150.517 32.2532 150.368 32.4777C146.788 40.9339 139.553 45.1994 131.796 45.1994C119.265 45.1994 113 35.3214 113 25.2189C112.851 13.1707 120.906 0.0748291 137.39 0.0748291C145.818 0.0748291 149.473 3.592 149.473 9.87801C149.473 12.572 148.876 15.1912 147.534 15.1912H147.459Z" fill="white"/>
<path d="M194.449 12.4223C194.449 14.5177 193.629 17.2865 191.167 18.409C185.648 20.9534 172.744 22.3752 165.584 22.3752C165.211 22.3752 165.136 22.5249 165.136 22.899C165.211 24.9944 165.733 27.0149 166.404 28.736C169.015 34.4982 174.087 37.5664 180.203 37.5664C185.126 37.5664 189.974 35.471 193.48 31.3552C193.629 30.981 194.076 30.7565 194.524 30.7565C195.27 30.7565 195.866 31.2055 195.866 31.8042C195.866 31.9539 195.792 32.2532 195.717 32.4029C192.137 40.859 184.082 45.3491 176.25 45.3491C164.316 45.2742 157.528 35.8452 157.528 25.2189C157.528 13.021 166.181 0 180.128 0C188.631 0 194.524 5.76217 194.524 12.4223H194.449ZM164.913 17.062C164.838 17.8852 164.838 18.5587 164.838 18.858C164.913 19.0077 165.136 19.307 165.36 19.307C171.103 19.307 185.648 16.6879 185.648 14.7422C185.648 10.776 181.993 5.76217 176.324 5.68734C169.612 5.68734 165.733 11.1502 164.838 17.062H164.913Z" fill="white"/>
<path d="M8.8013 91.0723C7.53332 86.8816 4.62441 85.6094 1.11881 85.1604C0.372934 85.0856 0.074585 84.5618 0.074585 83.7386C0.074585 82.8406 0.671284 82.3916 1.41716 82.3916H22.9729C23.7934 82.3916 24.2409 82.9154 24.2409 83.7386C24.2409 84.5618 23.7934 85.1604 23.0475 85.1604C19.9148 85.1604 18.7214 86.4326 18.7214 88.3783C18.7214 89.2014 19.0198 90.0994 19.1689 91.0723L21.9287 103.046C23.1967 108.508 24.1663 112.4 24.9868 118.312H25.3597L36.0257 83.2148C36.324 82.6161 38.4125 82.1671 40.4263 82.1671C42.4402 82.1671 44.6032 82.3168 44.9762 83.0651L49.3022 102.447C50.5702 108.059 51.6144 112.699 52.4349 118.312H52.8078L61.7583 91.1471C62.1312 90.2491 62.2804 89.4259 62.2804 88.8273C62.2804 86.0584 59.7444 85.3849 56.388 85.2353C55.5676 85.1604 55.12 84.6366 55.12 83.8134C55.12 82.9903 55.5676 82.4664 56.4626 82.4664H74.4381C75.0348 82.4664 75.7061 82.9903 75.7061 83.8134C75.7061 84.6366 75.3332 85.1604 74.5127 85.2353C70.858 85.5346 68.6949 87.4803 67.2778 91.1471L54.4487 125.196C53.9266 125.945 52.1365 126.394 50.2719 126.394C48.4072 126.394 46.5425 126.094 46.095 125.645L38.0395 91.5213H37.6666L27.0752 125.196C26.5531 125.945 24.3901 126.394 22.7491 126.394C21.0336 126.394 18.796 126.244 18.6468 125.645L8.72671 91.1471L8.8013 91.0723Z" fill="white"/>
<path d="M113.969 93.5418C113.969 95.6371 113.149 98.4059 110.688 99.5284C105.168 102.073 92.2645 103.495 85.1041 103.495C84.7312 103.495 84.6566 103.644 84.6566 104.018C84.7312 106.114 85.2533 108.134 85.9246 109.855C88.5352 115.618 93.6071 118.686 99.7232 118.686C104.646 118.686 109.494 116.59 113 112.475C113.149 112.1 113.596 111.876 114.044 111.876C114.79 111.876 115.387 112.325 115.387 112.924C115.387 113.073 115.312 113.373 115.237 113.522C111.657 121.978 103.602 126.468 95.7701 126.468C83.8362 126.394 77.0487 116.965 77.0487 106.338C77.0487 94.1404 85.7008 81.1194 99.6487 81.1194C108.152 81.1194 114.044 86.8816 114.044 93.5418H113.969ZM84.4328 98.1814C84.3583 99.0046 84.3583 99.6781 84.3583 99.9774C84.4329 100.127 84.6566 100.426 84.8804 100.426C90.6236 100.426 105.168 97.8073 105.168 95.8616C105.168 91.8954 101.513 86.8816 95.8447 86.8068C89.1319 86.8068 85.2533 92.2696 84.3583 98.1814H84.4328Z" fill="white"/>
<path d="M154.172 83.4393C154.769 83.8134 155.44 84.3373 155.887 84.9359C156.037 85.2353 156.037 85.3101 156.186 85.3101C156.335 85.3101 156.26 85.2353 156.26 84.9359C156.26 84.7863 156.111 83.5141 156.111 82.3168L156.484 73.3368C156.484 69.6699 153.426 68.6971 149.249 68.6971C148.951 68.2481 148.802 67.7991 148.802 67.3501C148.802 66.5269 149.398 65.8534 150.517 65.5541C153.575 65.0302 157.155 63.3839 159.99 61.6627C161.034 60.9144 161.929 60.2409 163.421 60.2409C164.316 60.2409 165.285 60.6151 165.808 61.4382L164.092 112.699C164.092 117.114 165.285 120.407 169.164 120.706C170.357 120.706 170.954 120.631 171.476 120.631C172.297 120.631 172.446 121.006 172.446 121.38C172.446 121.904 172.148 122.278 171.849 122.652C169.984 124.523 166.777 126.094 163.197 126.094C157.678 126.094 155.291 121.529 155.291 116.965C155.291 116.216 155.291 115.468 155.365 114.869C155.365 114.57 155.365 114.495 155.291 114.495C155.216 114.495 155.216 114.57 155.142 114.794C152.456 121.08 146.639 126.543 139.478 126.543C127.544 126.543 122.025 117.039 122.025 106.862C122.099 93.7663 131.05 81.1943 144.923 81.1943C148.205 81.1943 151.338 81.9426 154.247 83.5141L154.172 83.4393ZM129.558 102.447C129.558 111.128 134.556 119.284 142.984 119.284C151.412 119.284 154.992 112.25 155.216 104.318L155.664 93.9159C155.664 93.1676 155.589 92.8683 155.142 92.1948C152.829 88.7524 148.28 86.6571 143.655 86.6571C134.705 86.6571 129.484 93.5418 129.484 102.447H129.558Z" fill="white"/>
<path d="M209.143 83.4393C209.74 83.8134 210.411 84.3373 210.858 84.9359C211.008 85.2353 211.008 85.3101 211.157 85.3101C211.306 85.3101 211.231 85.2353 211.231 84.9359C211.231 84.7863 211.082 83.5141 211.082 82.3168L211.455 73.3368C211.455 69.6699 208.397 68.6971 204.22 68.6971C203.922 68.2481 203.773 67.7991 203.773 67.3501C203.773 66.5269 204.369 65.8534 205.488 65.5541C208.546 65.0302 212.126 63.3839 214.961 61.6627C216.005 60.9144 216.9 60.2409 218.392 60.2409C219.287 60.2409 220.256 60.6151 220.778 61.4382L219.063 112.699C219.063 117.114 220.256 120.407 224.135 120.706C225.328 120.706 225.925 120.631 226.447 120.631C227.268 120.631 227.417 121.006 227.417 121.38C227.417 121.904 227.118 122.278 226.82 122.652C224.955 124.523 221.748 126.094 218.168 126.094C212.648 126.094 210.262 121.529 210.262 116.965C210.262 116.216 210.262 115.468 210.336 114.869C210.336 114.57 210.336 114.495 210.262 114.495C210.187 114.495 210.187 114.57 210.113 114.794C207.427 121.08 201.61 126.543 194.449 126.543C182.515 126.543 176.996 117.039 176.996 106.862C177.07 93.7663 186.021 81.1943 199.894 81.1943C203.176 81.1943 206.309 81.9426 209.217 83.5141L209.143 83.4393ZM184.529 102.447C184.529 111.128 189.526 119.284 197.955 119.284C206.383 119.284 209.963 112.25 210.187 104.318L210.635 93.9159C210.635 93.1676 210.56 92.8683 210.113 92.1948C207.8 88.7524 203.25 86.6571 198.626 86.6571C189.676 86.6571 184.454 93.5418 184.454 102.447H184.529Z" fill="white"/>
<path d="M240.32 94.2153C240.32 90.6981 238.083 89.4259 233.533 89.4259C233.235 89.1266 233.085 88.6028 233.085 88.1538C233.085 87.3306 233.607 86.5074 234.801 86.2829C237.784 85.7591 240.992 84.1876 243.378 82.6161C244.572 81.8678 245.616 80.9698 247.108 80.9698C248.077 80.9698 249.047 81.3439 249.495 82.2419L248.45 113.822C248.45 118.237 248.898 121.829 254.194 122.727C255.014 122.802 255.462 123.325 255.462 124.074C255.462 124.897 254.865 125.421 254.119 125.421H233.085C232.489 125.421 231.817 124.972 231.817 124.149C231.817 123.325 232.265 122.802 233.011 122.727C238.754 121.754 239.425 118.536 239.649 113.223L240.395 94.2153H240.32ZM250.763 65.7786C250.763 69.6699 248.376 71.7652 244.497 71.7652C240.619 71.7652 238.829 69.6699 238.829 66.5269C238.829 62.5607 241.141 60.3906 245.019 60.3906C248.898 60.3906 250.763 62.4859 250.763 65.7037V65.7786Z" fill="white"/>
<path d="M295.366 81.1194C305.361 81.1194 308.269 88.7524 308.269 96.0861L307.673 113.597C307.673 118.386 308.195 121.829 313.416 122.727C314.236 122.802 314.684 123.251 314.684 124.074C314.684 124.897 314.162 125.421 313.341 125.421H292.382C291.636 125.421 291.114 124.972 291.114 124.149C291.114 123.325 291.487 122.802 292.308 122.727C298.051 121.754 298.722 118.237 298.946 113.223L299.394 100.277C299.394 94.6643 297.976 88.3783 290.965 88.3783C282.388 88.3783 279.18 96.8344 278.882 104.168L278.509 113.896C278.509 118.686 279.106 121.904 284.252 122.802C284.998 122.876 285.446 123.325 285.446 124.149C285.446 124.972 284.924 125.496 284.103 125.496H263.293C262.547 125.496 261.951 125.047 261.951 124.223C261.951 123.4 262.324 122.876 263.144 122.802C268.887 121.754 269.559 118.386 269.782 113.298L270.379 94.7391C270.379 91.2219 267.694 89.9498 263.144 89.9498C262.846 89.5756 262.771 89.1266 262.771 88.6776C262.771 87.7796 263.219 86.9564 264.487 86.8068C267.321 86.2829 271.125 84.7114 273.437 83.2147C274.705 82.3916 275.6 81.4936 277.167 81.4936C278.136 81.4936 279.031 81.8677 279.479 82.6909L278.658 93.0928C278.658 93.0928 278.733 93.4669 278.807 93.4669C278.882 93.4669 278.957 93.3921 279.106 93.1676C281.94 85.9088 288.205 81.1194 295.44 81.1194H295.366Z" fill="white"/>
<path d="M353.395 85.4598C355.259 85.4598 361.152 83.7386 362.718 80.8949C362.867 80.5208 363.166 80.3711 363.613 80.3711C364.657 80.3711 365.776 83.5889 365.776 85.3849C365.776 88.6028 362.793 89.4259 358.989 89.4259L356.378 89.2763C356.378 89.2763 356.229 89.2763 356.229 89.4259C356.229 89.5008 356.602 89.8749 357.05 90.6981C357.945 92.5689 358.467 94.8888 358.467 97.1338C358.467 104.692 354.066 109.855 347.801 114.794C347.428 115.094 345.712 116.59 345.041 117.264C344.668 117.638 344.519 117.788 344.519 117.863C344.519 117.937 344.817 118.012 345.041 118.162C349.964 119.135 364.732 124.747 364.732 128.04C364.732 140.088 351.306 146 338.999 146C327.96 146 317.891 141.285 317.891 132.904C317.891 126.693 324.082 123.55 330.571 121.679C335.941 120.182 337.806 118.686 341.685 115.094C339.82 115.692 338.477 115.917 336.911 115.917C329.005 115.917 320.875 110.604 320.875 100.651C320.875 91.5961 328.11 81.1943 341.088 81.1943C345.712 81.1943 350.038 82.4664 353.469 85.3849L353.395 85.4598ZM328.333 96.7596C328.333 103.42 332.809 110.828 341.013 110.828C347.652 110.828 350.486 106.039 350.486 100.875C350.486 94.2153 345.638 86.6571 337.657 86.6571C331.242 86.6571 328.259 91.5213 328.259 96.6848L328.333 96.7596ZM354.663 131.557C354.663 129.162 344.444 125.271 338.85 123.475C337.881 123.101 337.358 122.951 336.911 122.951C336.538 122.951 335.643 123.4 335.121 123.7C330.944 125.496 328.483 128.19 328.483 132.231C328.483 138.517 334.3 142.258 341.013 142.258C347.726 142.258 354.663 138.367 354.663 131.557V131.557Z" fill="white"/>
<path d="M228.013 8.60583C228.013 6.66016 226.895 5.98666 224.359 5.98666C224.135 5.83699 224.135 5.53766 224.135 5.31316C224.135 4.78932 224.433 4.34032 225.105 4.26549C226.82 3.96615 228.536 3.14299 229.953 2.24499C230.624 1.79599 231.221 1.34698 231.967 1.34698C232.563 1.34698 233.085 1.57149 233.384 2.02049L232.787 19.0077C232.787 21.3275 233.458 23.1235 235.547 23.2732H237.113C237.113 23.2732 237.486 23.4977 237.486 23.797C237.486 24.0215 237.411 24.1712 237.262 24.3208C236.143 25.3685 234.353 26.3413 232.414 26.3413C229.207 26.3413 227.939 24.1712 227.939 21.6268C227.939 21.103 227.939 20.5043 228.088 19.9057C228.088 19.756 228.088 19.6812 228.013 19.6812C227.939 19.6812 227.864 19.6812 227.864 19.8308C226.298 23.797 222.792 26.5658 218.765 26.5658C213.171 26.5658 211.753 22.3003 211.753 18.1845L212.126 8.68066C212.126 6.73499 210.858 6.06149 208.322 6.06149C208.099 5.91182 208.024 5.61249 208.024 5.38799C208.024 4.86416 208.322 4.41515 208.994 4.34032C210.56 4.04099 212.425 3.21782 213.693 2.31982C214.364 1.87082 214.961 1.42182 215.781 1.42182C216.303 1.42182 216.9 1.64632 217.198 2.09532L216.676 15.9395C216.676 19.3818 217.422 22.5248 221.375 22.5248C226.149 22.5248 227.939 17.8852 228.088 13.7693V8.75549L228.013 8.60583Z" fill="white"/>
<path d="M266.426 12.2727C266.426 19.9805 261.429 26.491 253.746 26.491C251.956 26.491 249.644 26.042 248.152 24.695C247.779 24.4705 247.63 24.1712 247.555 24.1712C247.555 24.1712 247.481 24.1712 247.481 24.3208C247.555 24.7698 247.555 25.2937 247.555 25.8175L247.332 30.6068C247.332 34.4234 249.196 35.471 252.926 35.92C253.299 35.92 253.597 36.2194 253.597 36.6684C253.597 37.1174 253.373 37.4167 252.926 37.4167H239.127C239.127 37.4167 238.456 37.1922 238.456 36.6684C238.456 36.2942 238.679 35.9949 239.127 35.92C242.185 35.2465 242.483 33.226 242.558 30.6068L243.304 8.83032C243.304 6.88465 241.738 6.21115 239.202 6.21115C239.052 5.98665 238.978 5.76215 238.978 5.53765C238.978 5.01382 239.351 4.56482 239.947 4.48998C241.588 4.19065 243.602 3.29265 244.945 2.46948C245.616 2.02048 246.213 1.64631 247.108 1.57148C247.555 1.57148 248.077 1.79598 248.376 2.17015L248.003 8.00716C248.003 8.00716 248.003 8.15682 248.077 8.15682C248.152 8.15682 248.152 8.15682 248.227 8.00716C249.868 4.11582 253.224 1.42181 257.252 1.42181C263.741 1.42181 266.65 6.66015 266.65 12.3475L266.426 12.2727ZM247.928 14.2932L247.705 19.307C247.705 19.756 247.705 19.9057 247.928 20.2798C249.495 22.45 252.031 23.4977 254.417 23.4977C259.266 23.4977 262.174 19.3818 262.174 14.5177C262.174 9.65349 259.564 5.38798 254.716 5.31315C249.793 5.31315 248.003 10.1773 247.854 14.368L247.928 14.2932Z" fill="white"/>
<path d="M294.322 12.4972C294.322 19.2322 289.921 26.4162 281.269 26.4162C273.81 26.4162 270.454 21.103 270.454 15.3408C270.454 8.60583 275.078 1.27216 283.581 1.27216C290.816 1.27216 294.322 6.66016 294.322 12.4972V12.4972ZM274.705 12.4972C274.705 17.511 277.912 22.9738 283.432 22.9738C287.982 22.9738 290.07 19.307 290.07 15.3408C290.07 10.327 286.863 4.56483 281.418 4.56483C276.868 4.56483 274.705 8.38133 274.705 12.4972V12.4972Z" fill="white"/>
<path d="M316.623 1.34698C322.217 1.34698 323.784 5.61249 323.784 9.65349L323.411 19.3818C323.411 22.001 323.709 23.9467 326.618 24.4705C327.065 24.4705 327.289 24.7698 327.289 25.2188C327.289 25.6678 326.991 25.9672 326.543 25.9672H314.908C314.535 25.9672 314.236 25.7427 314.236 25.2937C314.236 24.8447 314.46 24.5453 314.908 24.4705C318.115 23.9467 318.488 22.001 318.562 19.1573L318.786 11.9733C318.786 8.83033 317.966 5.38799 314.087 5.38799C309.314 5.38799 307.523 10.1025 307.374 14.1435L307.151 19.5315C307.151 22.1507 307.523 23.9467 310.358 24.4705C310.731 24.4705 311.029 24.7698 311.029 25.2188C311.029 25.6678 310.731 25.9672 310.283 25.9672H298.722C298.349 25.9672 297.976 25.7427 297.976 25.2937C297.976 24.8447 298.2 24.5453 298.648 24.4705C301.855 23.8718 302.228 22.001 302.302 19.1573L302.675 8.83033C302.675 6.88466 301.184 6.21116 298.648 6.21116C298.498 5.98666 298.424 5.76216 298.424 5.53766C298.424 5.01382 298.648 4.56482 299.393 4.48999C300.96 4.19065 303.048 3.36749 304.391 2.46949C305.062 2.02049 305.584 1.49665 306.479 1.49665C307.001 1.49665 307.523 1.72115 307.747 2.17015L307.3 7.93233C307.3 7.93233 307.3 8.15683 307.374 8.15683C307.374 8.15683 307.449 8.15683 307.523 8.00716C309.09 3.96615 312.595 1.34698 316.623 1.34698V1.34698Z" fill="white"/>
<path d="M345.563 10.9257C344.295 10.9257 342.729 9.80316 342.729 8.68066C342.729 7.55816 344.37 5.53766 345.488 4.56482C347.801 2.54432 350.635 1.34698 353.619 1.34698C357.87 1.34698 361.823 3.81649 361.823 9.50383L361.45 19.2322C361.45 21.6268 362.494 23.348 364.508 23.348C365.03 23.348 365.627 23.2732 365.776 23.2732C366 23.2732 366.075 23.4977 366.075 23.7222C366.075 24.9943 362.867 26.1917 361.003 26.1917C357.795 26.1917 356.751 23.7222 356.751 21.4772C356.751 21.4772 356.751 21.4023 356.602 21.4023C356.453 21.4023 356.453 21.4023 356.453 21.4772C355.036 24.695 352.052 26.3413 348.994 26.3413C344.892 26.3413 342.356 23.0487 342.356 18.858C342.356 15.7898 350.56 13.3952 355.632 12.4972C356.229 12.4223 356.826 12.1978 356.826 11.0753C356.826 6.28599 354.364 4.71449 351.381 4.71449C349.591 4.71449 347.279 5.16349 347.279 6.43566C347.279 9.50383 346.756 10.8508 345.563 10.8508V10.9257ZM351.455 22.899C356.229 22.899 356.751 17.2865 356.751 14.368C356.751 14.2183 356.751 14.1435 356.527 14.1435C355.259 14.1435 347.428 16.613 347.428 18.2593C347.428 20.8785 348.994 22.899 351.381 22.899H351.455Z" fill="white"/>
</g>
<defs>
<clipPath id="clip0_322_75933">
<rect width="366" height="146" fill="white"/>
</clipPath>
</defs>
</svg>
