<svg width="128" height="30" viewBox="0 0 128 30" fill="none" xmlns="http://www.w3.org/2000/svg">
<path d="M0 29.6804V0.321268H3.39528C4.84659 0.321268 6.07155 0.427786 7.07017 0.640822C8.08209 0.840545 8.90761 1.21336 9.54672 1.75927C10.1991 2.30517 10.6985 3.07743 11.0446 4.07605C11.4041 5.07466 11.6505 6.35288 11.7836 7.91071C11.9168 9.46855 11.9833 11.3792 11.9833 13.6427V16.1992C11.9833 18.4893 11.9168 20.4266 11.7836 22.0111C11.6505 23.5956 11.4108 24.8938 11.0646 25.9057C10.7184 26.9043 10.2191 27.6832 9.56669 28.2424C8.92758 28.7883 8.10206 29.1678 7.09014 29.3809C6.09153 29.5806 4.85991 29.6804 3.39528 29.6804H0ZM4.314 25.3664C4.91317 25.3664 5.40581 25.3198 5.79194 25.2266C6.19139 25.1334 6.50429 24.927 6.73064 24.6075C6.9703 24.2879 7.1434 23.7953 7.24992 23.1295C7.35643 22.4638 7.42301 21.5651 7.44964 20.4333C7.48958 19.2882 7.50955 17.8502 7.50955 16.1193V13.6427C7.50955 11.5656 7.47627 9.92791 7.40969 8.72957C7.35643 7.51792 7.22329 6.61918 7.01025 6.03333C6.81053 5.44747 6.49097 5.068 6.05158 4.89491C5.62551 4.72181 5.04631 4.63527 4.314 4.63527V25.3664Z" fill="black"/>
<path d="M14.8621 29.6804V0.321268H24.7284V4.7551H19.1761V12.4644H23.1706V17.1778H19.1761V25.2466H24.7284V29.6804H14.8621Z" fill="black"/>
<path d="M32.5032 30C30.3329 30 28.7218 29.281 27.67 27.843C26.6181 26.3917 26.1387 24.2613 26.2319 21.4519L30.4661 21.0524C30.4661 22.7967 30.6258 24.0682 30.9454 24.8671C31.2783 25.6527 31.7975 26.0455 32.5032 26.0455C32.8894 26.0455 33.2089 25.939 33.4619 25.7259C33.7282 25.4996 33.9279 25.18 34.0611 24.7673C34.1942 24.3412 34.2608 23.8219 34.2608 23.2094C34.2608 22.7567 34.2208 22.3373 34.141 21.9512C34.0611 21.5651 33.888 21.119 33.6217 20.613C33.3687 20.0938 32.9759 19.4214 32.4433 18.5959C31.924 17.7703 31.2117 16.6918 30.3063 15.3604C29.1479 13.6427 28.2758 12.0783 27.6899 10.6669C27.1174 9.25551 26.8311 7.9906 26.8311 6.87216C26.8311 5.52736 27.0641 4.34234 27.5301 3.3171C28.0095 2.29186 28.6752 1.48631 29.5274 0.900461C30.3795 0.31461 31.3582 0.0150274 32.4633 0.00171193C34.3939 -0.0382328 35.8785 0.62085 36.9171 1.97896C37.969 3.32376 38.4949 5.26106 38.4949 7.79088L34.2608 8.19032C34.2608 6.80558 34.1143 5.75371 33.8214 5.03471C33.5285 4.3024 33.1024 3.9429 32.5432 3.95621C32.197 3.95621 31.9107 4.05607 31.6844 4.2558C31.4713 4.4422 31.3116 4.73513 31.205 5.13457C31.1118 5.53402 31.0652 6.04664 31.0652 6.67243C31.0652 7.19171 31.1651 7.75093 31.3648 8.3501C31.5778 8.94927 31.9307 9.66161 32.4233 10.4871C32.9293 11.3126 33.6084 12.3312 34.4605 13.5429C35.4325 14.9143 36.2114 16.1393 36.7973 17.2178C37.3964 18.283 37.8292 19.2683 38.0955 20.1737C38.3617 21.0658 38.4949 21.9445 38.4949 22.81C38.4949 24.3678 38.2685 25.686 37.8158 26.7645C37.3631 27.8297 36.6907 28.6352 35.7986 29.1811C34.9066 29.727 33.8081 30 32.5032 30Z" fill="black"/>
<path d="M40.8026 29.6804V0.321268H45.1166V29.6804H40.8026Z" fill="black"/>
<path d="M53.1245 30C52.086 30 51.1806 29.7337 50.4083 29.2011C49.6361 28.6552 49.0369 27.9096 48.6108 26.9642C48.1981 26.0055 48.0117 24.9004 48.0516 23.6488V6.35288C48.1182 4.3956 48.6707 2.85108 49.7093 1.71932C50.7479 0.574249 52.1126 0.00171193 53.8036 0.00171193C55.5079 0.00171193 56.8793 0.574249 57.9179 1.71932C58.9564 2.8644 59.5023 4.40892 59.5556 6.35288V10.8666H55.2416V6.35288C55.2416 5.67382 55.1151 5.14789 54.8621 4.77507C54.6091 4.38894 54.2563 4.19588 53.8036 4.19588C53.3509 4.19588 52.9981 4.38894 52.7451 4.77507C52.4921 5.14789 52.3656 5.67382 52.3656 6.35288V24.0083C52.3656 24.6741 52.4921 25.2 52.7451 25.5861C52.9981 25.9723 53.3509 26.1653 53.8036 26.1653C54.2563 26.1653 54.6091 25.9723 54.8621 25.5861C55.1151 25.2 55.2416 24.6741 55.2416 24.0083V18.6957H53.524V15.0608H59.5556V29.6804H56.9992L56.4799 28.2824C55.9872 28.8949 55.4813 29.3343 54.962 29.6006C54.4427 29.8668 53.8302 30 53.1245 30Z" fill="black"/>
<path d="M62.7253 29.6804V0.321268H66.5599L70.7541 15.62L71.1136 16.9781H71.3533V15.62V0.321268H75.3077V29.6804H71.4731L67.2789 14.3817L66.9194 13.0236H66.6797V14.3817V29.6804H62.7253Z" fill="black"/>
<path d="M78.5574 29.6804V0.32125H82.8714V25.686H88.5835V29.6804H78.5574Z" fill="#130EFF"/>
<path d="M95.8103 30C94.106 30 92.7412 29.4341 91.716 28.3023C90.6907 27.1706 90.1382 25.6194 90.0583 23.6488V6.35286C90.1249 4.39558 90.6774 2.85106 91.716 1.7193C92.7545 0.574231 94.1193 0.00169373 95.8103 0.00169373C97.5146 0.00169373 98.886 0.574231 99.9246 1.7193C100.963 2.86438 101.509 4.4089 101.562 6.35286V23.6488C101.509 25.6061 100.963 27.1573 99.9246 28.3023C98.886 29.4341 97.5146 30 95.8103 30ZM95.8103 25.8058C96.263 25.8058 96.6158 25.6127 96.8688 25.2266C97.1218 24.8405 97.2483 24.3146 97.2483 23.6488V6.35286C97.2483 5.67381 97.1218 5.14787 96.8688 4.77506C96.6158 4.38893 96.263 4.19586 95.8103 4.19586C95.3576 4.19586 95.0047 4.38893 94.7518 4.77506C94.4988 5.14787 94.3723 5.67381 94.3723 6.35286V23.6488C94.3723 24.3146 94.4988 24.8405 94.7518 25.2266C95.0047 25.6127 95.3576 25.8058 95.8103 25.8058Z" fill="#130EFF"/>
<path d="M104.459 29.6804V0.32125H114.725V4.75508H108.773V12.4644H112.767V16.8982H108.773V29.6804H104.459Z" fill="#130EFF"/>
<path d="M119.03 29.6804V4.75508H114.956V0.32125H127.418V4.75508H123.344V29.6804H119.03Z" fill="#130EFF"/>
</svg>
