<svg width="59" height="68" viewBox="0 0 59 68" fill="none" xmlns="http://www.w3.org/2000/svg">
<path d="M29.3124 64.9218C29.3124 63.8958 29.499 62.6365 29.8721 61.144L31.3412 55.9671C32.1341 53.3553 32.857 51.0234 33.5099 48.9712C34.1629 46.9191 35.5387 42.4184 37.6375 35.4692C39.7829 28.52 40.8556 24.9987 40.8556 24.9055C40.8556 24.0659 40.4825 23.5529 39.7363 23.3664C38.99 23.1332 38.1739 23.0166 37.2877 23.0166H36.3783L37.0778 20.638H38.3371C41.2287 20.638 43.4907 20.4981 45.1231 20.2182C46.8021 19.9384 48.3179 19.472 49.6704 18.819L50.5099 19.7285C50.4166 19.8684 50.1368 20.4281 49.6704 21.4075C49.2506 22.3403 48.8076 23.4363 48.3412 24.6956L38.9667 53.3786C38.1739 56.177 37.6608 58.0192 37.4276 58.9054C37.2411 59.7915 37.1478 60.4911 37.1478 61.0041C37.1478 61.9836 37.4976 62.4733 38.1972 62.4733C38.9434 62.4733 40.1793 61.6104 41.905 59.8848L43.7939 57.9959L45.193 59.3251C42.488 62.31 40.1094 64.5021 38.0573 65.9012C36.0051 67.3004 34.1396 68 32.4606 68C30.3618 68 29.3124 66.9739 29.3124 64.9218Z" fill="black"/>
<path d="M29.0329 49.8106V0H21.8971V17.9094C19.3086 14.8312 16.3703 13.9218 12.5926 13.9218C9.02467 13.9218 5.94649 15.1111 3.98765 17.0699C0.559669 20.5679 0 26.2345 0 32.0411C0 37.9176 0.559669 43.5843 3.98765 47.0822C5.94649 49.041 9.09463 50.2303 12.6625 50.2303C16.5102 50.2303 19.3786 49.2509 22.037 46.0328V49.8106H29.0329ZM21.8971 32.0411C21.8971 38.3374 20.9876 43.8641 14.5514 43.8641C8.04525 43.8641 7.13579 38.3374 7.13579 32.0411C7.13579 25.7448 8.04525 20.288 14.5514 20.288C20.9876 20.288 21.8971 25.7448 21.8971 32.0411Z" fill="black"/>
<circle cx="52.469" cy="46.6391" r="5.82989" fill="#130EFF"/>
</svg>
